<?xml version="1.0" standalone="no"?>
<!DOCTYPE svg PUBLIC "-//W3C//DTD SVG 20010904//EN"
 "http://www.w3.org/TR/2001/REC-SVG-20010904/DTD/svg10.dtd">
<svg version="1.0" xmlns="http://www.w3.org/2000/svg"
 width="360.000000pt" height="360.000000pt" viewBox="0 0 360.000000 360.000000"
 preserveAspectRatio="xMidYMid meet">
<metadata>
Created by potrace 1.14, written by Peter Selinger 2001-2017
</metadata>
<g transform="translate(0.000000,360.000000) scale(0.100000,-0.100000)"
fill="#000000" stroke="none">
<path d="M1625 3309 c-830 -82 -1454 -839 -1375 -1669 66 -696 559 -1244 1245
-1383 157 -31 442 -31 595 2 476 101 867 404 1084 838 94 188 142 381 153 609
15 351 -81 681 -284 967 -131 185 -361 380 -572 486 -249 126 -552 179 -846
150z m376 -548 l39 -39 0 -526 c0 -289 1 -526 3 -526 2 0 86 84 188 186 101
102 199 194 217 206 26 16 44 19 79 15 44 -5 54 -12 171 -131 l125 -125 -5
-57 -5 -56 -484 -484 -484 -484 -48 0 c-26 0 -60 6 -75 14 -15 8 -237 225
-494 483 -499 500 -493 493 -473 570 7 31 204 236 247 259 32 17 81 18 111 3
12 -6 111 -99 220 -207 l197 -197 0 518 c0 572 -1 558 63 597 28 18 51 20 201
20 l168 0 39 -39z"/>
</g>
</svg>
